<?xml version="1.0" standalone="no"?>
<!DOCTYPE svg PUBLIC "-//W3C//DTD SVG 20010904//EN"
 "http://www.w3.org/TR/2001/REC-SVG-20010904/DTD/svg10.dtd">
<svg version="1.0" xmlns="http://www.w3.org/2000/svg"
 width="300.000000pt" height="142.000000pt" viewBox="0 0 300.000000 142.000000"
 preserveAspectRatio="xMidYMid meet">
<metadata>
Created by potrace 1.10, written by Peter Selinger 2001-2011
</metadata>
<g transform="translate(0.000000,142.000000) scale(0.100000,-0.100000)"
fill="#000000" stroke="none">
<path d="M2316 1128 c-21 -30 -20 -54 4 -78 11 -11 20 -28 20 -37 0 -10 5 -25
10 -33 7 -11 10 -7 10 18 0 32 0 32 50 32 45 0 54 4 81 35 34 39 50 43 70 19
11 -14 10 -19 -10 -35 -13 -11 -32 -19 -42 -19 -10 0 -19 -6 -19 -13 0 -25 61
-13 87 17 29 34 29 41 -2 71 -33 34 -48 32 -96 -16 -39 -39 -69 -46 -69 -15 0
20 -48 76 -65 76 -8 0 -21 -10 -29 -22z m60 -50 c21 -40 10 -48 -23 -16 -16
17 -23 32 -19 43 8 21 22 12 42 -27z"/>
<path d="M2233 1093 c-22 -8 -14 -23 13 -23 22 0 25 -4 21 -22 -3 -13 -9 -36
-13 -52 l-7 -30 28 22 c15 12 34 22 42 22 8 0 12 4 9 9 -3 5 -15 7 -27 4 -17
-5 -19 -2 -13 21 10 40 -16 64 -53 49z"/>
<path d="M2590 1013 c-43 -40 -49 -59 -24 -78 9 -6 15 -18 12 -25 -3 -10 -8
-9 -20 4 -9 9 -21 16 -26 16 -5 0 -15 7 -22 15 -10 12 -45 15 -193 15 -145 0
-178 -2 -168 -12 8 -9 59 -13 174 -14 185 -1 176 0 201 -19 18 -13 18 -17 1
-112 -37 -211 -34 -201 -65 -216 -15 -8 -39 -13 -52 -12 -12 1 -15 0 -5 -2 21
-5 22 -53 2 -138 -13 -54 -13 -76 0 -63 7 7 35 137 35 165 0 16 11 28 38 42
33 17 39 25 55 87 12 46 14 71 7 78 -5 5 -10 16 -10 24 0 12 3 12 15 2 8 -7
15 -10 15 -8 0 2 11 42 25 89 l25 84 -22 16 -22 17 30 26 c37 32 52 32 64 1 5
-14 14 -25 20 -25 13 0 13 6 -5 39 -22 44 -40 45 -85 4z m-28 -160 c-10 -28
-10 -28 -11 12 -1 28 2 36 10 28 8 -8 8 -19 1 -40z"/>
<path d="M694 1011 c-2 -2 -4 -51 -4 -108 l0 -103 45 0 45 0 0 108 0 107 -41
0 c-22 0 -42 -2 -45 -4z m65 -108 c-1 -80 -2 -84 -22 -81 -20 3 -21 8 -19 82
4 89 6 98 27 89 12 -4 15 -24 14 -90z"/>
<path d="M820 968 c0 -41 3 -48 19 -48 29 0 51 27 51 64 0 30 -2 32 -35 32
l-35 0 0 -48z m48 5 c-5 -25 -28 -28 -28 -4 0 12 6 21 16 21 9 0 14 -7 12 -17z"/>
<path d="M908 908 l-3 -108 48 0 49 0 -5 107 -5 107 -41 1 -40 1 -3 -108z m63
30 c1 -29 2 -66 3 -83 1 -24 -4 -31 -21 -33 -20 -3 -21 1 -21 75 0 85 2 93 24
93 10 0 14 -14 15 -52z"/>
<path d="M1013 1003 c-7 -18 6 -66 20 -75 7 -4 20 -8 30 -8 14 0 17 9 17 48 0
48 -1 49 -31 49 -17 0 -33 -6 -36 -14z m47 -33 c0 -11 -4 -20 -10 -20 -5 0
-10 9 -10 20 0 11 5 20 10 20 6 0 10 -9 10 -20z"/>
<path d="M1174 1010 c-34 -13 -54 -50 -54 -98 0 -64 31 -111 73 -112 15 0 17
12 17 110 0 61 -3 110 -7 109 -5 0 -18 -4 -29 -9z m15 -112 c1 -65 -11 -80
-34 -44 -18 27 -13 99 8 124 16 20 25 -9 26 -80z"/>
<path d="M1230 979 c0 -45 17 -67 58 -75 l32 -6 0 59 0 59 -45 -1 c-45 0 -45
0 -45 -36z m61 4 c7 -38 4 -53 -7 -53 -16 0 -37 37 -29 50 7 12 34 13 36 3z"/>
<path d="M1360 1016 c-1 -1 -2 -49 -3 -109 l-2 -107 45 0 46 0 -4 40 c-4 35
-1 40 16 40 18 0 19 -5 15 -40 l-6 -40 47 0 46 0 0 108 0 108 -42 -1 -43 -1 0
-55 c0 -30 -4 -53 -8 -51 -4 1 -12 2 -18 2 -6 0 -9 20 -8 52 l3 52 -42 1 c-23
1 -42 1 -42 1z m174 -113 c1 -72 -1 -78 -19 -78 -16 0 -19 6 -17 28 2 15 -1
27 -7 27 -6 0 -11 7 -11 15 0 8 5 15 10 15 6 0 10 17 10 38 0 21 3 42 7 46 16
16 27 -19 27 -91z m-107 42 c5 -52 4 -105 -3 -116 -3 -5 -14 -9 -25 -9 -17 0
-19 8 -19 86 0 81 1 85 21 82 17 -2 22 -12 26 -43z"/>
<path d="M1600 925 c0 -102 12 -125 64 -125 l27 0 -3 106 -3 106 -42 2 -43 2
0 -91z m65 -17 c0 -84 -13 -109 -35 -69 -13 25 -11 143 3 153 24 15 32 -5 32
-84z"/>
<path d="M1720 1015 c0 0 -1 -66 -3 -148 l-2 -147 26 0 c51 0 59 24 59 166 l0
129 -40 0 c-22 0 -40 0 -40 0z m55 -145 c0 -103 -2 -115 -17 -115 -10 0 -18 3
-18 8 0 4 0 57 0 118 0 100 2 110 18 107 15 -3 17 -17 17 -118z"/>
<path d="M2110 989 c0 -20 4 -29 12 -27 7 3 13 13 13 24 0 16 7 19 42 19 23 1
45 4 49 8 4 4 -20 7 -54 7 l-62 0 0 -31z"/>
<path d="M2126 901 c9 -24 44 -154 44 -168 0 -7 -12 -13 -26 -13 -30 0 -84 49
-84 77 0 14 -8 18 -40 19 -45 0 -50 -19 -7 -24 18 -2 32 -13 43 -33 17 -33 69
-61 100 -53 15 4 22 -3 32 -35 6 -23 12 -50 12 -61 0 -16 6 -20 33 -19 29 0
30 1 10 11 -22 11 -41 64 -78 213 -15 63 -15 70 0 81 13 10 11 12 -15 16 -25
4 -30 2 -24 -11z"/>
<path d="M2348 898 c-2 -13 -5 -81 -7 -153 -1 -71 -6 -134 -11 -139 -12 -12
-26 26 -34 94 -14 122 -30 210 -38 210 -4 0 -6 -17 -3 -37 22 -168 28 -229 30
-303 2 -52 11 -106 23 -138 21 -59 39 -83 27 -37 -27 103 -42 175 -37 179 2 3
16 3 31 0 l26 -5 3 175 c4 163 0 210 -10 154z"/>
<path d="M2620 901 c0 -10 -4 -21 -10 -23 -5 -1 -6 -8 -2 -15 5 -8 12 -3 19
17 7 18 7 32 2 36 -5 3 -9 -4 -9 -15z"/>
<path d="M2470 884 c0 -8 5 -12 10 -9 6 4 8 11 5 16 -9 14 -15 11 -15 -7z"/>
<path d="M1230 820 c0 -15 7 -20 29 -20 25 0 61 21 61 36 0 2 -20 4 -45 4 -38
0 -45 -3 -45 -20z"/>
<path d="M2587 793 c-20 -62 -14 -68 8 -8 10 25 16 48 13 51 -3 2 -12 -17 -21
-43z"/>
<path d="M2585 715 c4 -11 14 -39 22 -63 11 -32 12 -47 4 -55 -16 -16 -14 -27
4 -21 9 4 15 0 15 -10 0 -19 11 -21 28 -4 9 9 7 19 -7 42 -10 17 -21 43 -25
57 -3 15 -15 37 -27 50 -18 21 -20 21 -14 4z"/>
<path d="M146 575 c-9 -9 -16 -24 -16 -33 0 -20 127 -172 144 -172 21 0 56 31
56 49 0 27 -119 165 -145 169 -13 2 -30 -4 -39 -13z m63 -24 c10 -10 38 -44
61 -75 35 -47 41 -59 29 -67 -24 -15 -31 -11 -90 54 -61 65 -66 76 -47 95 16
16 25 15 47 -7z"/>
<path d="M275 538 c27 -29 50 -55 52 -57 2 -2 3 21 3 52 l0 57 -51 0 -52 0 48
-52z m38 8 c4 -10 1 -13 -9 -9 -7 3 -14 9 -14 14 0 14 17 10 23 -5z"/>
<path d="M373 498 c4 -80 7 -94 27 -110 12 -10 32 -18 44 -18 20 0 21 4 21
110 l0 110 -49 0 -48 0 5 -92z m70 -13 c0 -72 -2 -80 -19 -80 -17 0 -19 8 -19
63 0 34 -3 62 -7 62 -3 0 -4 9 -1 21 4 13 12 19 26 17 18 -3 20 -10 20 -83z"/>
<path d="M490 480 l0 -110 45 0 45 0 0 110 0 110 -45 0 -45 0 0 -110z m67 8
c1 -81 -8 -111 -28 -91 -16 16 -20 156 -5 165 24 16 31 -1 33 -74z"/>
<path d="M608 480 c3 -102 5 -110 23 -110 11 0 31 11 44 25 23 22 25 32 25
110 l0 85 -47 0 -48 0 3 -110z m67 19 c1 -71 -8 -99 -30 -99 -16 0 -18 17 -15
105 2 48 13 68 35 61 6 -1 10 -32 10 -67z"/>
<path d="M741 480 l1 -110 44 0 44 0 0 45 c0 45 0 45 36 45 31 0 35 3 32 23
-2 17 -10 22 -33 22 -29 1 -30 3 -30 43 l0 42 -48 0 -47 0 1 -110z m53 84 c9
-3 16 -15 16 -25 0 -11 6 -28 12 -39 10 -16 10 -24 0 -40 -6 -11 -12 -29 -12
-41 0 -15 -5 -20 -22 -17 -21 3 -23 8 -23 73 -1 65 3 95 10 95 2 0 10 -3 19
-6z"/>
<path d="M860 570 c0 -23 28 -40 64 -40 22 0 26 4 26 30 0 29 -2 30 -45 30
-38 0 -45 -3 -45 -20z m50 -10 c0 -5 -2 -10 -4 -10 -3 0 -8 5 -11 10 -3 6 -1
10 4 10 6 0 11 -4 11 -10z"/>
<path d="M1000 570 c-17 -17 -20 -33 -20 -110 l0 -90 45 0 45 0 0 110 0 110
-25 0 c-14 0 -34 -9 -45 -20z m48 -91 c-1 -75 -3 -80 -22 -77 -19 3 -21 9 -19
71 1 64 15 103 33 92 5 -3 8 -41 8 -86z"/>
<path d="M1100 480 l0 -110 45 0 45 0 0 88 c0 102 -14 132 -61 132 l-29 0 0
-110z m59 61 c4 -9 7 -43 6 -76 -1 -54 -3 -60 -23 -63 -21 -3 -22 0 -22 82 0
72 2 84 15 80 9 -4 19 -14 24 -23z"/>
<path d="M1220 545 c0 -41 2 -45 24 -45 29 0 42 15 48 58 4 31 4 32 -34 32
l-38 0 0 -45z m46 -11 c-5 -13 -10 -14 -18 -6 -6 6 -8 18 -4 28 5 13 10 14 18
6 6 -6 8 -18 4 -28z"/>
<path d="M1310 480 l0 -110 46 0 46 0 -4 110 -3 110 -42 0 -43 0 0 -110z m61
78 c2 -7 4 -44 4 -83 0 -63 -2 -70 -20 -70 -18 0 -20 7 -21 75 -1 41 1 78 3
83 7 12 31 8 34 -5z"/>
<path d="M1410 571 c0 -44 19 -71 49 -71 28 0 29 2 29 45 l0 45 -39 0 c-32 0
-39 -4 -39 -19z m50 -35 c-8 -8 -13 -7 -20 4 -12 20 -1 33 16 19 11 -9 12 -15
4 -23z"/>
<path d="M1520 480 l0 -110 46 0 46 0 -4 45 c-3 45 -3 45 29 45 29 0 33 3 33
26 0 22 -3 25 -32 22 -32 -3 -32 -3 -29 40 l3 42 -46 0 -46 0 0 -110z m59 81
c7 -5 11 -15 9 -22 -3 -8 1 -21 9 -31 12 -14 13 -20 0 -45 -7 -15 -12 -36 -10
-45 3 -14 -2 -18 -22 -18 -26 0 -26 0 -24 78 2 95 5 103 38 83z"/>
<path d="M1630 576 c0 -24 29 -46 61 -46 26 0 29 3 29 30 0 29 -2 30 -45 30
-32 0 -45 -4 -45 -14z m60 -16 c0 -5 -4 -10 -10 -10 -5 0 -10 5 -10 10 0 6 5
10 10 10 6 0 10 -4 10 -10z"/>
<path d="M1760 479 l0 -110 41 3 41 3 2 108 1 107 -42 0 -43 0 0 -111z m55 80
c9 -13 7 -147 -1 -161 -4 -6 -10 -6 -17 1 -11 11 -19 148 -10 164 6 10 21 9
28 -4z"/>
<path d="M1870 480 l0 -110 50 0 c39 0 50 4 50 16 0 19 -19 56 -34 66 -7 4 -4
13 7 26 39 43 9 112 -50 112 -23 0 -23 -2 -23 -110z m65 48 c0 -13 -6 -32 -12
-44 -9 -16 -9 -27 3 -48 16 -33 11 -46 -15 -39 -15 4 -18 15 -18 81 -1 42 1
80 4 85 9 15 39 -12 38 -35z"/>
<path d="M126 428 l2 -53 46 -2 c25 -1 46 1 46 3 0 8 -82 104 -89 104 -4 0 -6
-24 -5 -52z m44 -19 c0 -5 -4 -9 -10 -9 -5 0 -10 7 -10 16 0 8 5 12 10 9 6 -3
10 -10 10 -16z"/>
<path d="M1690 443 c-32 -6 -60 -31 -60 -54 0 -14 9 -17 45 -17 l45 0 0 39 c0
21 -1 38 -2 38 -2 -1 -14 -4 -28 -6z m0 -38 c0 -8 -4 -15 -10 -15 -5 0 -10 7
-10 15 0 8 5 15 10 15 6 0 10 -7 10 -15z"/>
<path d="M878 429 c-10 -5 -18 -20 -18 -33 0 -21 5 -24 44 -24 44 -1 44 -1 43
33 -1 31 -4 35 -26 35 -15 0 -34 -5 -43 -11z m42 -18 c0 -5 -7 -11 -15 -15
-15 -5 -20 5 -8 17 9 10 23 9 23 -2z"/>
<path d="M1994 359 c-3 -6 -1 -16 5 -22 8 -8 11 -5 11 11 0 24 -5 28 -16 11z"/>
<path d="M2448 283 c7 -3 16 -2 19 1 4 3 -2 6 -13 5 -11 0 -14 -3 -6 -6z"/>
</g>
</svg>
